<?xml version="1.0" encoding="UTF-8"?> <svg xmlns="http://www.w3.org/2000/svg" viewBox="0 0 331 356.4"><style type="text/css"> .st0{fill:none;stroke:#74B1BE;stroke-width:11.5329;stroke-linecap:round;stroke-miterlimit:10;} .st1{fill:#74B1BE;} </style><path class="st0" d="M116.6 82c-43.8-8.1-79.6 0-93.4 23.1 -10.4 17.3-6.9 41.5 8.1 65.7M54.3 203.1c18.5 19.6 41.5 39.2 70.4 55.4 66.9 38.1 134.9 48.4 168.4 26.5M325.3 271.1c0-10.4-8.1-18.5-18.5-18.5s-18.5 8.1-18.5 18.5 8.1 18.5 18.5 18.5S325.3 280.3 325.3 271.1L325.3 271.1z"></path><path class="st0" d="M282.7 197.3c28.8-33.4 40.4-68 26.5-91.1 -10.4-17.3-32.3-26.5-60-26.5M208.8 84.3c-26.5 5.8-55.4 16.1-84.2 33.4C55.4 156.9 10.4 212.3 16.2 252.6M24.3 288.4c10.4 0 18.5-8.1 18.5-18.5s-8.1-18.5-18.5-18.5 -18.5 8.1-18.5 18.5C5.9 280.3 13.9 288.4 24.3 288.4L24.3 288.4 24.3 288.4z"></path><path class="st0" d="M99.3 282.7c15 41.5 39.2 68 66.9 68 19.6 0 38.1-13.8 53.1-38.1M236.5 273.4c8.1-25.4 12.7-54.2 12.7-86.5 0-78.4-27.7-143-64.6-159.2M166.2 42.8c10.4 0 18.5-8.1 18.5-18.5s-8.1-18.5-18.5-18.5 -18.5 8.1-18.5 18.5S155.8 42.8 166.2 42.8z"></path><path class="st1" d="M169.6 203.1c-9.2 2.3-17.3-3.5-19.6-12.7 -2.3-9.2 3.5-17.3 12.7-19.6s17.3 3.5 19.6 12.7C184.6 192.7 178.9 201.9 169.6 203.1z"></path></svg> 